<?xml version="1.0" encoding="utf-8"?>
<svg xmlns="http://www.w3.org/2000/svg" xmlns:xlink="http://www.w3.org/1999/xlink" version= "1.1" width="1618px" height="1000px" viewBox="-350 195 1618 1000">
<g id="layer1">
<g style="fill:rgb(97,190,255); fill-opacity:1.0; stroke-linejoin: miter">
<path d="M-359.43652,180.76634L459.8673,180.76685L1279.1711,180.76735L1279.1711,1211.5934Q459.8673,1211.5939,-359.43652,1211.5944Q-359.43652,696.18036,-359.43652,180.76634"/>
</g>
<g style="fill:rgb(0,0,0); fill-opacity:0.13725491; stroke-linejoin: miter">
<path d="M920.82947,1083.0366L916.8397,1084.4218Q888.47473,1088.6077,750.8483,1091.1173Q612.2694,1093.625,424.47607,1093.1511Q245.2518,1092.4886,137.797,1089.2742Q103.367294,1088.2352,81.07788,1087.0099L62.344246,1085.7502Q46.906013,1084.4501,46.732445,1083.0366Q51.419052,1078.699,174.74098,1075.8187Q298.06293,1072.9385,483.78094,1072.829Q669.49896,1072.9385,792.8208,1075.8187Q916.1428,1078.699,920.82947,1083.0366"/>
</g>
<g style="fill:rgb(246,253,255); fill-opacity:0.2901961; stroke-linejoin: miter">
<path d="M429.12527,880.4674L457.41135,947.27356L485.6975,1014.07983Q511.26807,946.14124,536.83875,878.2029Q482.98193,879.3351,429.12527,880.4674"/>
</g>
<g style="fill:rgb(202,233,247); fill-opacity:1.0; stroke-linejoin: miter">
<path d="M485.943,436.9877C483.7683,436.9877,482.00574,434.51523,482.00574,431.4658L482.00574,403.73544C482.00574,400.68555,483.76892,398.21353,485.9431,398.21353C488.11755,398.21353,489.88037,400.68597,489.88037,403.73544L489.88037,431.46475C489.88086,434.51474,488.11755,436.9877,485.943,436.9877 Z"/>
</g>
<g style="fill:rgb(99,112,121); fill-opacity:1.0; stroke-linejoin: miter">
<path d="M504.67358,390.16016C504.67358,400.50537,496.28723,408.8918,485.94202,408.8918C475.5968,408.8918,467.21048,400.50543,467.21048,390.16025C467.21048,379.81512,475.59705,371.42865,485.94202,371.42865C496.28723,371.42865,504.67358,379.81503,504.67358,390.16016 Z"/>
</g>
<g style="fill:rgb(99,112,121); fill-opacity:1.0; stroke-linejoin: miter">
<path d="M520.2833,428.66257L451.60306,428.66306C446.42953,428.66257,442.23752,432.855,442.23752,438.02805L442.23758,445.31192L529.6489,445.31223L529.6489,438.02805C529.6489,432.85544,525.45557,428.66257,520.2833,428.66257 Z"/>
</g>
<g style="fill:rgb(35,31,32); fill-opacity:0.09803922; stroke-linejoin: miter">
<path d="M475.563,390.16016C475.563,381.25116,481.78442,373.79996,490.11877,371.90228C488.7754,371.5961,487.38013,371.42923,485.94385,371.42923C475.59814,371.42908,467.21237,379.81503,467.21237,390.16025C467.21237,400.50507,475.59814,408.8914,485.9441,408.89145C487.37964,408.89145,488.7754,408.7244,490.11877,408.41818C481.78394,406.51962,475.563,399.06888,475.563,390.16016 Z"/>
</g>
<g style="fill:rgb(35,31,32); fill-opacity:0.09803922; stroke-linejoin: miter">
<path d="M459.9537,428.66257L451.60355,428.66306C446.42996,428.66257,442.238,432.855,442.23795,438.02805L442.238,445.31192L450.5886,445.3124L450.5886,438.02805C450.5886,432.85544,454.78024,428.66257,459.9537,428.66257 Z"/>
</g>
<g style="fill:rgb(99,112,121); fill-opacity:1.0; stroke-linejoin: miter">
<path d="M506.92572,594.1065L459.1464,594.107C453.97482,594.1065,449.7805,589.9128,449.7805,584.74097L449.7805,579.5382C449.78055,574.3661,453.97433,570.1725,459.14645,570.1726L512.7376,570.1731C517.9111,570.1725,522.1035,574.3661,522.1035,579.5382L522.1034,584.74097C522.1035,589.9132,517.9112,594.1065,512.7376,594.1065L506.92572,594.1071"/>
</g>
<g style="fill:rgb(35,31,32); fill-opacity:0.09803922; stroke-linejoin: miter">
<path d="M458.13113,584.74097L458.13113,579.5382C458.13113,574.3661,462.32498,570.1725,467.4971,570.1725L459.14694,570.1731C453.97525,570.1725,449.78104,574.3661,449.78104,579.5382L449.7809,584.74097C449.7809,589.9132,453.97482,594.1065,459.14694,594.1065L467.4971,594.1071C462.32492,594.1065,458.131,589.9127,458.13113,584.74097 Z"/>
</g>
<g style="fill:rgb(99,112,121); fill-opacity:1.0; stroke-linejoin: miter">
<path d="M402.12045,480.5592C389.36966,480.63232,379.05392,492.6571,379.05392,507.48462C379.05392,522.3123,389.36954,534.337,402.12033,534.4109L402.12045,480.5592 Z"/>
</g>
<g style="fill:rgb(99,112,121); fill-opacity:1.0; stroke-linejoin: miter">
<path d="M569.76685,480.55914C582.51636,480.6322,592.8334,492.65723,592.8334,507.48492C592.8335,522.3126,582.51636,534.3373,569.7667,534.4112L569.76685,480.55914 Z"/>
</g>
<g style="fill:rgb(246,253,255); fill-opacity:1.0; stroke-linejoin: miter">
<path d="M570.75305,444.78757L429.22604,444.78812L416.1013,444.78775L401.1327,444.78812C395.96002,444.7877,391.7666,448.98105,391.7666,454.15317L391.76645,561.85724C391.7665,567.0299,395.95987,571.22284,401.13254,571.2228L570.7529,571.22327C575.9247,571.2228,580.11816,567.0295,580.11816,561.85706L580.11816,454.15317C580.11816,448.98062,575.92505,444.78757,570.75305,444.78757 Z"/>
</g>
<g style="fill:rgb(99,112,121); fill-opacity:1.0; stroke-linejoin: miter">
<path d="M453.6827,489.01404C453.6827,495.33582,448.55795,500.46063,442.23618,500.4607C435.91452,500.4607,430.78983,495.33606,430.7897,489.01416C430.78983,482.69257,435.91452,477.56763,442.23618,477.56763C448.55795,477.56763,453.6827,482.69232,453.6827,489.01404 Z"/>
</g>
<g style="fill:rgb(99,112,121); fill-opacity:1.0; stroke-linejoin: miter">
<path d="M541.095,489.01404C541.095,495.33582,535.97034,500.46063,529.64844,500.4605C523.3268,500.4605,518.2021,495.33582,518.2021,489.01404C518.2021,482.69244,523.3268,477.56763,529.64844,477.56757C535.9701,477.56763,541.095,482.69244,541.095,489.01404 Z"/>
</g>
<g style="fill:rgb(35,31,32); fill-opacity:0.09803922; stroke-linejoin: miter">
<path d="M386.5704,507.48456C386.57053,496.8379,390.8055,487.346,397.42148,481.14136C386.92874,483.71625,379.05392,494.53052,379.05392,507.48462C379.05392,520.43964,386.92874,531.25354,397.42136,533.82794C390.8055,527.6235,386.5704,518.1319,386.5704,507.48456 Z"/>
</g>
<g style="fill:rgb(35,31,32); fill-opacity:0.09803922; stroke-linejoin: miter">
<path d="M400.11807,561.85675L400.11816,454.15317C400.11816,448.98105,404.31067,444.78763,409.4842,444.7877L401.1327,444.78812C395.96002,444.7877,391.7666,448.98105,391.7666,454.15317L391.76645,561.85724C391.7665,567.0299,395.95987,571.22284,401.13254,571.2228L409.48312,571.2232C404.31052,571.2228,400.11795,567.02936,400.11807,561.85675 Z"/>
</g>
<g style="fill:rgb(35,31,32); fill-opacity:0.09803922; stroke-linejoin: miter">
<path d="M439.1412,489.01367C439.1412,484.1657,442.1564,480.02478,446.41287,478.35626C445.11868,477.84918,443.71176,477.5672,442.23807,477.5672C435.9155,477.5672,430.79074,482.69214,430.79074,489.01373C430.79074,495.33545,435.9155,500.46014,442.23807,500.46014C443.71176,500.46014,445.11868,500.17816,446.41287,499.67114C442.1559,498.00262,439.14133,493.86163,439.1412,489.01367 Z"/>
</g>
<g style="fill:rgb(35,31,32); fill-opacity:0.09803922; stroke-linejoin: miter">
<path d="M526.5526,489.0136C526.5526,484.16565,529.56775,480.02466,533.8248,478.35626C532.5305,477.84918,531.1227,477.5672,529.6493,477.56714C523.3269,477.56714,518.20245,482.69196,518.20245,489.0136C518.2026,495.33527,523.3269,500.46008,529.6493,500.46002C531.12317,500.46014,532.5305,500.17822,533.8248,499.6712C529.56775,498.00244,526.5526,493.86145,526.5526,489.0136 Z"/>
</g>
<g style="fill:rgb(246,253,255); fill-opacity:1.0; stroke-linejoin: miter">
<path d="M363.69437,660.2927C351.52527,660.2927,341.56848,670.2495,341.56854,682.4186L341.5685,881.5472C334.93024,881.5472,330.50555,885.97186,330.50555,892.61017C330.50555,899.2484,334.93024,903.67303,341.56845,903.67303L374.75723,903.6743C381.39554,903.67303,385.82016,899.2484,385.82016,892.61017C385.82016,885.97186,381.39554,881.5472,374.75723,881.5472L385.82022,660.2927C385.82022,660.2927,363.69437,660.2927,363.69437,660.2927 Z M629.2008,881.5471L629.2008,682.4186C629.2008,670.24945,619.244,660.2927,607.0748,660.2927L584.9491,660.29407L596.0133,881.5473C589.375,881.5473,584.95044,885.972,584.95044,892.6102C584.95044,899.24854,589.375,903.67316,596.0133,903.67316L629.20215,903.67444C635.84045,903.67316,640.26514,899.2485,640.26514,892.61017C640.26514,885.9719,635.8379,881.5471,629.2008,881.5471 Z"/>
</g>
<g style="fill:rgb(99,112,121); fill-opacity:1.0; stroke-linejoin: miter">
<path d="M385.81888,892.61017C385.81888,885.97186,381.39426,881.5472,374.756,881.5472L385.81894,660.2927L363.69437,660.2939L363.69437,881.5472L374.75723,903.67303C381.39426,903.67303,385.81888,899.2484,385.81888,892.61017 Z M607.0748,660.2927L584.9491,660.29407L596.0133,881.5473C589.375,881.5473,584.95044,885.972,584.95044,892.6102C584.95044,899.24854,589.375,903.67316,596.0133,903.67316L607.0763,881.5471L607.0762,660.2927L607.0748,660.294 Z"/>
</g>
<g style="fill:rgb(246,253,255); fill-opacity:1.0; stroke-linejoin: miter">
<path d="M483.97498,890.8758C544.82043,890.8758,593.4956,842.19934,593.4955,781.35535L593.49536,583.33264L374.45297,583.3315L374.45303,781.3554C374.4531,842.19946,423.12827,890.8758,483.97498,890.8758 Z"/>
</g>
<g style="fill:rgb(99,112,121); fill-opacity:1.0; stroke-linejoin: miter">
<path d="M485.38544,582.8537C497.5545,582.8537,507.51117,592.8105,507.51117,604.97955C507.51117,617.1486,497.5545,627.10535,485.3853,627.10535C473.21616,627.10535,463.2595,617.1486,463.2595,604.97955C463.2595,592.8105,473.21494,582.8537,485.38544,582.8537 Z"/>
</g>
<g style="fill:rgb(99,112,121); fill-opacity:1.0; stroke-linejoin: miter">
<path d="M367.87228,662.37726L367.87228,662.37836L363.63443,685.5787L594.90576,682.41986L594.90576,660.2927L369.6929,660.8329L375.86343,660.2927 Z"/>
</g>
<g style="fill:rgb(99,112,121); fill-opacity:1.0; stroke-linejoin: miter">
<path d="M518.5733,715.6064L518.5722,715.6064L518.57196,826.2346L540.6991,826.2346L540.698,715.60645L518.5733,715.6064L518.5722,715.6064 Z"/>
</g>
<g style="fill:rgb(99,112,121); fill-opacity:1.0; stroke-linejoin: miter">
<path d="M474.32175,715.6064L474.32053,715.6064L474.32034,826.2346L496.44733,826.2346L496.44635,715.6064L474.32175,715.6064L474.32053,715.6064 Z"/>
</g>
<g style="fill:rgb(99,112,121); fill-opacity:1.0; stroke-linejoin: miter">
<path d="M430.07138,715.60626L430.07022,715.60626L430.06998,826.2345L452.1971,826.2345L452.19595,715.6064L430.07138,715.60626L430.07022,715.60626 Z"/>
</g>
<g style="fill:rgb(99,112,121); fill-opacity:1.0; stroke-linejoin: miter">
<path d="M406.08176,864.61554L560.9602,864.6168L538.83435,886.74023L428.2076,886.7415L406.08176,864.61554 Z"/>
</g>
</g>
</svg>