<?xml version='1.0' encoding='utf-8'?>
<svg xmlns:xlink="http://www.w3.org/1999/xlink" xmlns="http://www.w3.org/2000/svg" id="svg2191" version="1.1" viewBox="0 0 507.99999 285.75001" height="1080" width="1920"> <defs id="defs2185"> <linearGradient y2="138.25" x2="1058.3334" y1="402.83334" x1="555.625" gradientTransform="translate(-1907.6794,9608.0794)" gradientUnits="userSpaceOnUse" id="linearGradient2390" xlink:href="#linearGradient964"/> <linearGradient id="linearGradient964"> <stop id="stop960" offset="0" style="stop-color:#f2f2f2;stop-opacity:1;"/> <stop id="stop962" offset="1" style="stop-color:#f2f2f2;stop-opacity:1"/> </linearGradient> </defs> <metadata id="metadata2188"> </metadata> <g transform="translate(0,-11.249992)" id="layer1"> <g id="g2710" transform="translate(1325.5962,-9686.3957)"> <rect y="9697.6455" x="-1325.5962" height="285.75" width="508" id="rect2370" style="color:#000000;clip-rule:nonzero;display:inline;overflow:visible;visibility:visible;opacity:1;isolation:auto;mix-blend-mode:normal;color-interpolation:sRGB;color-interpolation-filters:linearRGB;solid-color:#000000;solid-opacity:1;fill:url(#linearGradient2390);fill-opacity:1;fill-rule:nonzero;stroke:none;stroke-width:0.079375;stroke-linecap:round;stroke-linejoin:round;stroke-miterlimit:4;stroke-dasharray:none;stroke-dashoffset:0;stroke-opacity:1;color-rendering:auto;image-rendering:auto;shape-rendering:auto;text-rendering:auto;enable-background:accumulate"/> <path id="path2372" d="m -988.79713,9770.34 -165.45447,114.0209 99.0343,99.0348 h 237.62117 V 9869.183 Z" style="opacity:0.1;fill:#000000;fill-rule:evenodd;stroke:none;stroke-width:0.26458332px;stroke-linecap:butt;stroke-linejoin:miter;stroke-opacity:1"/> <path id="path2374" d="m -1150.9704,9769.0828 a 5.2921957,5.2921957 0 0 0 -5.293,5.2929 v 105.8321 a 5.2921957,5.2921957 0 0 0 5.293,5.2929 h 158.74997 a 5.2921957,5.2921957 0 0 0 5.291,-5.2929 v -105.8321 a 5.2921957,5.2921957 0 0 0 -5.291,-5.2929 z" style="color:#000000;font-style:normal;font-variant:normal;font-weight:normal;font-stretch:normal;font-size:medium;line-height:normal;font-family:sans-serif;font-variant-ligatures:normal;font-variant-position:normal;font-variant-caps:normal;font-variant-numeric:normal;font-variant-alternates:normal;font-feature-settings:normal;text-indent:0;text-align:start;text-decoration:none;text-decoration-line:none;text-decoration-style:solid;text-decoration-color:#000000;letter-spacing:normal;word-spacing:normal;text-transform:none;writing-mode:lr-tb;direction:ltr;text-orientation:mixed;dominant-baseline:auto;baseline-shift:baseline;text-anchor:start;white-space:normal;shape-padding:0;clip-rule:nonzero;display:inline;overflow:visible;visibility:visible;opacity:1;isolation:auto;mix-blend-mode:normal;color-interpolation:sRGB;color-interpolation-filters:linearRGB;solid-color:#000000;solid-opacity:1;vector-effect:none;fill:#5599ff;fill-opacity:1;fill-rule:evenodd;stroke:none;stroke-width:10.58333302;stroke-linecap:round;stroke-linejoin:round;stroke-miterlimit:4;stroke-dasharray:none;stroke-dashoffset:0;stroke-opacity:1;color-rendering:auto;image-rendering:auto;shape-rendering:auto;text-rendering:auto;enable-background:accumulate"/> <path id="path2376" d="m -1145.6794,9779.6667 h 148.16597 v 95.25 h -148.16597 z" style="color:#000000;font-style:normal;font-variant:normal;font-weight:normal;font-stretch:normal;font-size:medium;line-height:normal;font-family:sans-serif;font-variant-ligatures:normal;font-variant-position:normal;font-variant-caps:normal;font-variant-numeric:normal;font-variant-alternates:normal;font-feature-settings:normal;text-indent:0;text-align:start;text-decoration:none;text-decoration-line:none;text-decoration-style:solid;text-decoration-color:#000000;letter-spacing:normal;word-spacing:normal;text-transform:none;writing-mode:lr-tb;direction:ltr;text-orientation:mixed;dominant-baseline:auto;baseline-shift:baseline;text-anchor:start;white-space:normal;shape-padding:0;clip-rule:nonzero;display:inline;overflow:visible;visibility:visible;opacity:1;isolation:auto;mix-blend-mode:normal;color-interpolation:sRGB;color-interpolation-filters:linearRGB;solid-color:#000000;solid-opacity:1;vector-effect:none;fill:#ffffff;fill-opacity:1;fill-rule:evenodd;stroke:none;stroke-width:10.58333302;stroke-linecap:round;stroke-linejoin:round;stroke-miterlimit:4;stroke-dasharray:none;stroke-dashoffset:0;stroke-opacity:1;color-rendering:auto;image-rendering:auto;shape-rendering:auto;text-rendering:auto;enable-background:accumulate"/> <path id="path2378" d="m -1076.8884,9880.2078 v 26.4589 h 10.584 v -26.4589 z" style="color:#000000;font-style:normal;font-variant:normal;font-weight:normal;font-stretch:normal;font-size:medium;line-height:normal;font-family:sans-serif;font-variant-ligatures:normal;font-variant-position:normal;font-variant-caps:normal;font-variant-numeric:normal;font-variant-alternates:normal;font-feature-settings:normal;text-indent:0;text-align:start;text-decoration:none;text-decoration-line:none;text-decoration-style:solid;text-decoration-color:#000000;letter-spacing:normal;word-spacing:normal;text-transform:none;writing-mode:lr-tb;direction:ltr;text-orientation:mixed;dominant-baseline:auto;baseline-shift:baseline;text-anchor:start;white-space:normal;shape-padding:0;clip-rule:nonzero;display:inline;overflow:visible;visibility:visible;opacity:1;isolation:auto;mix-blend-mode:normal;color-interpolation:sRGB;color-interpolation-filters:linearRGB;solid-color:#000000;solid-opacity:1;vector-effect:none;fill:#5599ff;fill-opacity:1;fill-rule:evenodd;stroke:none;stroke-width:10.58333302;stroke-linecap:butt;stroke-linejoin:miter;stroke-miterlimit:4;stroke-dasharray:none;stroke-dashoffset:0;stroke-opacity:1;color-rendering:auto;image-rendering:auto;shape-rendering:auto;text-rendering:auto;enable-background:accumulate"/> <path id="path2380" d="m -1103.3454,9901.3757 v 10.5821 h 5.291 52.916 5.293 v -10.5821 h -5.293 -52.916 z" style="color:#000000;font-style:normal;font-variant:normal;font-weight:normal;font-stretch:normal;font-size:medium;line-height:normal;font-family:sans-serif;font-variant-ligatures:normal;font-variant-position:normal;font-variant-caps:normal;font-variant-numeric:normal;font-variant-alternates:normal;font-feature-settings:normal;text-indent:0;text-align:start;text-decoration:none;text-decoration-line:none;text-decoration-style:solid;text-decoration-color:#000000;letter-spacing:normal;word-spacing:normal;text-transform:none;writing-mode:lr-tb;direction:ltr;text-orientation:mixed;dominant-baseline:auto;baseline-shift:baseline;text-anchor:start;white-space:normal;shape-padding:0;clip-rule:nonzero;display:inline;overflow:visible;visibility:visible;opacity:1;isolation:auto;mix-blend-mode:normal;color-interpolation:sRGB;color-interpolation-filters:linearRGB;solid-color:#000000;solid-opacity:1;vector-effect:none;fill:#5599ff;fill-opacity:1;fill-rule:evenodd;stroke:none;stroke-width:10.58333302;stroke-linecap:square;stroke-linejoin:miter;stroke-miterlimit:4;stroke-dasharray:none;stroke-dashoffset:0;stroke-opacity:1;color-rendering:auto;image-rendering:auto;shape-rendering:auto;text-rendering:auto;enable-background:accumulate"/> <g transform="matrix(0.86568695,0,0,0.86568695,-731.03102,2948.5612)" id="g2419"> <g id="g2405" transform="translate(-496.96011,105.16321)"> <path style="color:#000000;clip-rule:nonzero;display:inline;overflow:visible;visibility:visible;opacity:1;isolation:auto;mix-blend-mode:normal;color-interpolation:sRGB;color-interpolation-filters:linearRGB;solid-color:#000000;solid-opacity:1;fill:#5599ff;fill-opacity:1;fill-rule:nonzero;stroke:none;stroke-width:15;stroke-linecap:round;stroke-linejoin:round;stroke-miterlimit:4;stroke-dasharray:none;stroke-dashoffset:0;stroke-opacity:1;color-rendering:auto;image-rendering:auto;shape-rendering:auto;text-rendering:auto;enable-background:accumulate" d="m 274.99805,29502.52 v 23.296 a 99.999995,99.999995 0 0 0 -25.69532,10.649 l -16.47656,-16.477 -35.35742,35.358 16.47852,16.478 a 99.999995,99.999995 0 0 0 -10.66797,25.694 H 180 v 50.003 h 23.26562 a 99.999995,99.999995 0 0 0 10.59766,25.778 l -16.39453,16.394 35.35742,35.36 16.41406,-16.414 a 99.999995,99.999995 0 0 0 25.75782,10.648 v 23.233 h 50.0039 v -23.252 a 99.999995,99.999995 0 0 0 25.69727,-10.69 l 16.47461,16.475 35.35937,-35.36 -16.46875,-16.468 a 99.999995,99.999995 0 0 0 10.63086,-25.704 H 420 v -50.003 h -23.19141 a 99.999995,99.999995 0 0 0 -10.71679,-25.731 l 16.4414,-16.441 -35.35937,-35.358 -16.42383,16.424 a 99.999995,99.999995 0 0 0 -25.74805,-10.605 v -23.287 z" transform="scale(0.26458333)" id="path2401"/> <path style="color:#000000;clip-rule:nonzero;display:inline;overflow:visible;visibility:visible;opacity:1;isolation:auto;mix-blend-mode:normal;color-interpolation:sRGB;color-interpolation-filters:linearRGB;solid-color:#000000;solid-opacity:1;fill:#ffffff;fill-opacity:1;fill-rule:nonzero;stroke:none;stroke-width:2.00491333;stroke-linecap:round;stroke-linejoin:round;stroke-miterlimit:4;stroke-dasharray:none;stroke-dashoffset:0;stroke-opacity:1;color-rendering:auto;image-rendering:auto;shape-rendering:auto;text-rendering:auto;enable-background:accumulate" id="path2403" d="m 92.741088,7837.625 a 13.366088,13.366088 0 0 1 -12.569086,13.3423 13.366088,13.366088 0 0 1 -14.068042,-11.7511 13.366088,13.366088 0 0 1 10.891369,-14.7437 13.366088,13.366088 0 0 1 15.366917,9.9928"/> </g> <g transform="matrix(0.3127737,0,0,0.3127737,-372.23146,5490.4322)" id="g2411"> <path id="path2407" transform="scale(0.26458333)" d="m 274.99805,29502.52 v 23.296 a 99.999995,99.999995 0 0 0 -25.69532,10.649 l -16.47656,-16.477 -35.35742,35.358 16.47852,16.478 a 99.999995,99.999995 0 0 0 -10.66797,25.694 H 180 v 50.003 h 23.26562 a 99.999995,99.999995 0 0 0 10.59766,25.778 l -16.39453,16.394 35.35742,35.36 16.41406,-16.414 a 99.999995,99.999995 0 0 0 25.75782,10.648 v 23.233 h 50.0039 v -23.252 a 99.999995,99.999995 0 0 0 25.69727,-10.69 l 16.47461,16.475 35.35937,-35.36 -16.46875,-16.468 a 99.999995,99.999995 0 0 0 10.63086,-25.704 H 420 v -50.003 h -23.19141 a 99.999995,99.999995 0 0 0 -10.71679,-25.731 l 16.4414,-16.441 -35.35937,-35.358 -16.42383,16.424 a 99.999995,99.999995 0 0 0 -25.74805,-10.605 v -23.287 z" style="color:#000000;clip-rule:nonzero;display:inline;overflow:visible;visibility:visible;opacity:1;isolation:auto;mix-blend-mode:normal;color-interpolation:sRGB;color-interpolation-filters:linearRGB;solid-color:#000000;solid-opacity:1;fill:#5599ff;fill-opacity:1;fill-rule:nonzero;stroke:none;stroke-width:15;stroke-linecap:round;stroke-linejoin:round;stroke-miterlimit:4;stroke-dasharray:none;stroke-dashoffset:0;stroke-opacity:1;color-rendering:auto;image-rendering:auto;shape-rendering:auto;text-rendering:auto;enable-background:accumulate"/> <path d="m 92.741088,7837.625 a 13.366088,13.366088 0 0 1 -12.569086,13.3423 13.366088,13.366088 0 0 1 -14.068042,-11.7511 13.366088,13.366088 0 0 1 10.891369,-14.7437 13.366088,13.366088 0 0 1 15.366917,9.9928" id="path2409" style="color:#000000;clip-rule:nonzero;display:inline;overflow:visible;visibility:visible;opacity:1;isolation:auto;mix-blend-mode:normal;color-interpolation:sRGB;color-interpolation-filters:linearRGB;solid-color:#000000;solid-opacity:1;fill:#ffffff;fill-opacity:1;fill-rule:nonzero;stroke:none;stroke-width:2.00491333;stroke-linecap:round;stroke-linejoin:round;stroke-miterlimit:4;stroke-dasharray:none;stroke-dashoffset:0;stroke-opacity:1;color-rendering:auto;image-rendering:auto;shape-rendering:auto;text-rendering:auto;enable-background:accumulate"/> </g> <g id="g2417" transform="matrix(0.515092,0.22408171,-0.22408171,0.515092,1345.8216,3908.0794)"> <path style="color:#000000;clip-rule:nonzero;display:inline;overflow:visible;visibility:visible;opacity:1;isolation:auto;mix-blend-mode:normal;color-interpolation:sRGB;color-interpolation-filters:linearRGB;solid-color:#000000;solid-opacity:1;fill:#5599ff;fill-opacity:1;fill-rule:nonzero;stroke:none;stroke-width:15;stroke-linecap:round;stroke-linejoin:round;stroke-miterlimit:4;stroke-dasharray:none;stroke-dashoffset:0;stroke-opacity:1;color-rendering:auto;image-rendering:auto;shape-rendering:auto;text-rendering:auto;enable-background:accumulate" d="m 274.99805,29502.52 v 23.296 a 99.999995,99.999995 0 0 0 -25.69532,10.649 l -16.47656,-16.477 -35.35742,35.358 16.47852,16.478 a 99.999995,99.999995 0 0 0 -10.66797,25.694 H 180 v 50.003 h 23.26562 a 99.999995,99.999995 0 0 0 10.59766,25.778 l -16.39453,16.394 35.35742,35.36 16.41406,-16.414 a 99.999995,99.999995 0 0 0 25.75782,10.648 v 23.233 h 50.0039 v -23.252 a 99.999995,99.999995 0 0 0 25.69727,-10.69 l 16.47461,16.475 35.35937,-35.36 -16.46875,-16.468 a 99.999995,99.999995 0 0 0 10.63086,-25.704 H 420 v -50.003 h -23.19141 a 99.999995,99.999995 0 0 0 -10.71679,-25.731 l 16.4414,-16.441 -35.35937,-35.358 -16.42383,16.424 a 99.999995,99.999995 0 0 0 -25.74805,-10.605 v -23.287 z" transform="scale(0.26458333)" id="path2413"/> <path style="color:#000000;clip-rule:nonzero;display:inline;overflow:visible;visibility:visible;opacity:1;isolation:auto;mix-blend-mode:normal;color-interpolation:sRGB;color-interpolation-filters:linearRGB;solid-color:#000000;solid-opacity:1;fill:#ffffff;fill-opacity:1;fill-rule:nonzero;stroke:none;stroke-width:2.00491333;stroke-linecap:round;stroke-linejoin:round;stroke-miterlimit:4;stroke-dasharray:none;stroke-dashoffset:0;stroke-opacity:1;color-rendering:auto;image-rendering:auto;shape-rendering:auto;text-rendering:auto;enable-background:accumulate" id="path2415" d="m 92.741088,7837.625 a 13.366088,13.366088 0 0 1 -12.569086,13.3423 13.366088,13.366088 0 0 1 -14.068042,-11.7511 13.366088,13.366088 0 0 1 10.891369,-14.7437 13.366088,13.366088 0 0 1 15.366917,9.9928"/> </g> </g> </g> </g> </svg>